<?xml version="1.0" encoding="utf-8"?>
<!-- Generator: Adobe Illustrator 27.3.1, SVG Export Plug-In . SVG Version: 6.00 Build 0)  -->
<svg version="1.1" id="Layer_1" xmlns="http://www.w3.org/2000/svg" xmlns:xlink="http://www.w3.org/1999/xlink" x="0px" y="0px"
	 viewBox="0 0 595.3 841.9" style="enable-background:new 0 0 595.3 841.9;" xml:space="preserve">
<style type="text/css">
	.st0{fill:#23A4AA;}
	.st1{fill:none;stroke:#23A4AA;stroke-miterlimit:10;}
	.st2{fill:none;stroke:#FFFFFF;stroke-width:0.75;stroke-miterlimit:10;}
</style>
<g>
	<g>
		<path class="st0" d="M161.4,489.9c1.7,0.9,3,2.1,3.9,3.8c0.9,1.6,1.4,3.5,1.4,5.7s-0.5,4-1.4,5.7c-0.9,1.6-2.2,2.9-3.9,3.8
			c-1.7,0.9-3.6,1.3-5.8,1.3h-8.8v-21.6h8.8C157.8,488.6,159.7,489,161.4,489.9z M159.9,504c1.1-1.1,1.7-2.7,1.7-4.6
			c0-1.3-0.3-2.4-0.8-3.4c-0.5-1-1.2-1.7-2.1-2.2s-2-0.8-3.2-0.8h-3.8v12.7h3.8C157.4,505.7,158.8,505.2,159.9,504z"/>
		<path class="st0" d="M173.2,488.6h5v21.6h-5V488.6z"/>
		<path class="st0" d="M194,503H191v7.1h-5v-21.6h10.5c1.6,0,2.9,0.3,4.1,0.9s2.1,1.5,2.7,2.6c0.6,1.1,1,2.4,1,3.8
			c0,1.6-0.4,3-1.3,4.2c-0.9,1.2-2.1,2-3.6,2.5l6.1,7.5h-6L194,503z M198.4,493.7c-0.6-0.5-1.4-0.8-2.5-0.8H191v6.1h4.9
			c1.1,0,1.9-0.3,2.5-0.8c0.6-0.5,0.9-1.3,0.9-2.2S199,494.2,198.4,493.7z"/>
		<path class="st0" d="M216.2,505.9h11.9v4.2h-16.8v-21.6h16.4v4.2h-11.5v4.4h10.9v4.1h-10.9V505.9z"/>
		<path class="st0" d="M239,509.2c-1.8-0.9-3.1-2.3-4.1-4s-1.4-3.7-1.4-5.9s0.5-4.2,1.5-5.9s2.3-3,4.1-4c1.7-0.9,3.7-1.4,6-1.4
			c3.2,0,5.9,1.1,8.2,3.4l-3.1,3.1c-1.4-1.3-3-2-5-2c-1.3,0-2.4,0.3-3.4,0.8c-1,0.6-1.8,1.4-2.3,2.4c-0.5,1-0.8,2.2-0.8,3.5
			s0.3,2.5,0.8,3.5c0.5,1,1.3,1.8,2.3,2.4c1,0.6,2.1,0.8,3.4,0.8c1,0,2-0.2,3-0.6c0.9-0.4,1.8-0.9,2.5-1.6l3,3.3
			c-2.3,2.2-5.1,3.4-8.4,3.4C242.8,510.6,240.7,510.2,239,509.2z"/>
		<path class="st0" d="M275.8,488.6v4.4h-6.6v17.2h-5V493h-6.6v-4.4H275.8z"/>
		<path class="st0" d="M281.7,488.6h5v21.6h-5V488.6z"/>
		<path class="st0" d="M298.8,509.3c-1.8-0.9-3.1-2.3-4.1-4c-1-1.7-1.4-3.7-1.4-5.9s0.5-4.2,1.4-5.9s2.3-3,4.1-4
			c1.8-0.9,3.8-1.4,6.1-1.4c2.3,0,4.4,0.5,6.1,1.4c1.8,0.9,3.1,2.3,4.1,4c1,1.7,1.4,3.7,1.4,5.9s-0.5,4.2-1.4,5.9
			c-1,1.7-2.3,3-4.1,4c-1.8,0.9-3.8,1.4-6.1,1.4C302.6,510.7,300.5,510.2,298.8,509.3z M308.3,505.3c1-0.6,1.8-1.4,2.3-2.4
			c0.5-1,0.8-2.2,0.8-3.6s-0.3-2.5-0.8-3.6c-0.5-1-1.3-1.8-2.3-2.4s-2.1-0.8-3.4-0.8c-1.3,0-2.4,0.3-3.4,0.8c-1,0.6-1.8,1.4-2.3,2.4
			c-0.5,1-0.8,2.2-0.8,3.6s0.3,2.5,0.8,3.6c0.5,1,1.3,1.8,2.3,2.4c1,0.6,2.1,0.8,3.4,0.8C306.2,506.2,307.3,505.9,308.3,505.3z"/>
		<path class="st0" d="M337.2,488.6h5v21.6h-4.5l-9.8-13.3l0.1,5.8v7.5h-5v-21.6h4.5l9.8,13.4l-0.1-5.8V488.6z"/>
		<path class="st0" d="M385.3,488.6h5.5l-7.5,21.6h-4.8l-2-6l-2.5-7.2l-2.4,7.2l-2.1,6h-4.7l-7.6-21.6h5.5l2.7,8.6l1.8,6.1l4.9-14.7
			h3.6l5,14.8l1.9-6.2L385.3,488.6z"/>
		<path class="st0" d="M396.5,488.6h5v21.6h-5V488.6z"/>
		<path class="st0" d="M412.2,509.8c-1.6-0.5-3-1.3-4.2-2.2l2.6-3.7c1.9,1.5,4.1,2.2,6.7,2.2c1.3,0,2.3-0.2,3-0.6
			c0.7-0.4,1.1-1,1.1-1.8c0-0.7-0.3-1.2-1-1.6c-0.7-0.4-1.8-0.7-3.3-0.8c-2.9-0.3-5.1-1-6.5-2.1c-1.4-1-2-2.5-2-4.5
			c0-1.3,0.4-2.5,1.1-3.5s1.8-1.8,3.1-2.3c1.3-0.6,2.9-0.8,4.6-0.8c1.5,0,3,0.2,4.4,0.6c1.4,0.4,2.7,1,3.8,1.8l-2.4,3.5
			c-1.7-1.2-3.5-1.8-5.6-1.8c-1.3,0-2.3,0.2-3,0.6c-0.7,0.4-1.1,1-1.1,1.7c0,0.7,0.3,1.2,1,1.6c0.6,0.4,1.7,0.6,3.2,0.8
			c2.9,0.3,5.1,1.1,6.5,2.2c1.4,1.1,2.2,2.7,2.2,4.6c0,1.4-0.4,2.6-1.1,3.6c-0.8,1-1.8,1.8-3.2,2.4c-1.4,0.6-3,0.8-4.7,0.8
			C415.6,510.6,413.9,510.4,412.2,509.8z"/>
		<path class="st0" d="M437.6,505.9h11.9v4.2h-16.8v-21.6h16.4v4.2h-11.5v4.4h10.9v4.1h-10.9V505.9z"/>
	</g>
	<g>
		<path class="st0" d="M216,526.4h-4.1v-2.2c3.7,0,6.9,0,10.6,0v2.2h-4.1v10.7H216V526.4z"/>
		<path class="st0" d="M251.5,530.8c0,3.3-2.1,6.7-6.6,6.7c-4.5,0-6.7-3.3-6.7-6.7s2.2-6.8,6.7-6.8
			C249.3,524,251.5,527.4,251.5,530.8z M240.6,530.8c0.1,2.1,1.2,4.4,4.2,4.4s4.2-2.3,4.2-4.4c0-2.2-1.2-4.6-4.2-4.6
			S240.6,528.6,240.6,530.8z"/>
		<path class="st0" d="M279.4,524.2v7.4c0,3.8-2.3,5.8-5.6,5.8c-3.1,0-5.7-1.9-5.7-5.8v-7.4h2.4v7.4c0,2.3,1.3,3.6,3.3,3.6
			s3.2-1.3,3.2-3.6v-7.4H279.4z"/>
		<path class="st0" d="M308,537.2h-2.9l-3.8-4.3H299v4.3h-2.4v-13c2.1,0,4.1,0,6.2,0c3,0,4.7,2.1,4.7,4.3c0,1.8-0.8,3.6-3.3,4.1
			l3.9,4.4V537.2z M299,526.5v4.1h3.7c1.6,0,2.2-1,2.2-2.1c0-1-0.7-2.1-2.2-2.1H299z"/>
		<path class="st0" d="M323.8,537.2v-12.9h2.4v12.9H323.8z"/>
		<path class="st0" d="M351.6,527.3c-0.4-0.7-1.7-1.4-3.1-1.4c-1.8,0-2.7,0.8-2.7,1.7c0,1.1,1.3,1.4,2.9,1.6c2.7,0.3,5.2,1,5.2,4.1
			c0,2.9-2.6,4.1-5.4,4.1c-2.6,0-4.7-0.8-5.6-3.2l2-1.1c0.6,1.4,2.1,2.1,3.6,2.1c1.5,0,3-0.5,3-1.9c0-1.2-1.3-1.7-3-1.9
			c-2.6-0.3-5.1-1-5.1-3.9c0-2.7,2.6-3.8,5-3.8c2,0,4.1,0.6,5.1,2.6L351.6,527.3z"/>
		<path class="st0" d="M381.9,527.8l-4.2,5.6h-0.5l-4.1-5.6v9.4h-2.4v-12.9h2.8l4,5.6l4-5.6h2.8v12.9h-2.4V527.8z"/>
	</g>
	<g>
		<line class="st1" x1="147.2" y1="523.3" x2="192.9" y2="523.3"/>
		<line class="st1" x1="157.5" y1="530" x2="192.9" y2="530"/>
		<line class="st1" x1="167.8" y1="536.7" x2="192.9" y2="536.7"/>
		<line class="st1" x1="449" y1="523.3" x2="403.3" y2="523.3"/>
		<line class="st1" x1="438.7" y1="530" x2="403.3" y2="530"/>
		<line class="st1" x1="428.5" y1="536.7" x2="403.3" y2="536.7"/>
	</g>
	<g>
		<path class="st0" d="M194,472.6l-4.8,3.8h217.9l-4.6-3.8c0,0-3.4,0.1-4.4,0l-3.6-0.1h-1c-2.4,0.2-6.3,0.1-8.9,0.1l-51.3-0.1
			l-1,0.1c-1.1,0.1-4.7,0-5.8,0c-4.7,0-4.7,0-4.7-4.6c0-8.2,0-16.5,0-24.7c0-1.3,0.3-3-1.7-3c-2.1-0.1-2.2-1.4-2.2-3c0-1,0-2,0-3
			c0-10.7,0-21.4,0-32.2c0-1.2,0.5-3-1.1-3.2c-2.6-0.4-2.2-2.1-2.2-3.7c0-8.7,0-17.4,0.1-26.1c0-5.3,0-10.6,0-15.9
			c0-1.7-0.4-3-2.6-3.1c-3.4-0.2-3.4-0.3-3.4-3.8c0-7.6,0-15.1,0-22.7c0-1.7,0.1-3.2-2.3-3.3c-1.8-0.1-1.7-1.4-1.7-2.7
			c0-5.4,0-10.8,0-16.3c0-0.9,0.4-2.4-1.1-2.3c-1.2,0.1-0.7,1.4-0.8,2.3c-0.1,0.7,0,1.4,0,2c0,4.7,0,9.5,0,14.2c0,1.3,0,2.7-1.7,2.7
			c-2.1,0.1-2.2,1.4-2.2,3c0,4.5-0.1,9,0,13.5c0.1,2.3-0.6,3.5-3.1,3.2c-0.6-0.1-1.1,0-1.7,0c-1.9-0.2-2.6,0.7-2.6,2.6
			c0.1,2.9,0,5.9,0,8.8c0,9.8,0,19.6,0,29.5c0,1.1,0.5,3.1-1.1,3.1c-3.7,0.1-3.1,2.5-3.1,4.7c0,12,0,23.9,0,35.9
			c0,2.2,0.1,4.2-3.1,3.8c-1.4-0.2-2,0.9-2,2.2c0,0.9,0,1.8,0,2.7c0,12,0,23.9,0,35.9c0,3.5-0.1,3.6-3.6,3.6c-0.5,0-0.9,0-1.4,0
			l-4,0c0.6-4.6,0.7-10.1,0.2-14.8c2.2,0.8,4.2,1.6,5.3,3.9c0.5-1,0.4-1.8,0-2.7c-0.5-1.1-1.4-1.8-2.3-2.5c-0.3-0.2-0.5-0.4-0.9-0.6
			c2.2-0.3,3.7,0.8,5.3,1.7c0.3-1.1-0.1-1.9-0.8-2.5c-1.7-1.5-3.6-1.9-5.8-1c0.8-1.4,2-1.6,3.3-1.8c-0.6-0.9-1.4-1.3-2.3-1.2
			c-1.7,0.2-2.5,1.3-2.9,2.9c-3.1-2-5.9-1.9-6.8,0.2c2.5-0.5,3.5-0.4,4.3,0.5c-3.6,0.6-5.6,2.5-4.9,4.6c0.8-0.7,1.5-1.4,2.4-2
			c0.9-0.6,1.8-0.9,3-0.5c-2.3,2.8-2.6,4.7-1.2,6.2c0.4-2.2,1.6-4.1,3.2-4.8c0.6,5-0.4,9.7-1.6,14.5c-3.4,0.2-4.9,0-7.8,0
			c-0.6-0.1-56.5,0-57.1,0l-5,0c0.6-4.6,0.7-10.1,0.2-14.8c2.2,0.8,4.2,1.6,5.3,3.9c0.5-1,0.4-1.8,0-2.7c-0.5-1.1-1.4-1.8-2.3-2.5
			c-0.3-0.2-0.5-0.4-0.9-0.6c2.2-0.3,3.7,0.8,5.3,1.7c0.3-1.1-0.1-1.9-0.8-2.5c-1.7-1.5-3.6-1.9-5.8-1c0.8-1.4,2-1.6,3.3-1.8
			c-0.6-0.9-1.4-1.3-2.3-1.2c-1.7,0.2-2.5,1.3-2.9,2.9c-3.1-2-5.9-1.9-6.8,0.2c2.5-0.5,3.5-0.4,4.3,0.5c-3.6,0.6-5.6,2.5-4.9,4.6
			c0.8-0.7,1.5-1.4,2.4-2c0.9-0.6,1.8-0.9,3-0.5c-2.3,2.8-2.6,4.7-1.2,6.2c0.4-2.2,1.6-4.1,3.2-4.8c0.6,5-0.4,9.7-1.6,14.5
			C196.9,472.6,194,472.6,194,472.6 M317,442.1c2.1,0,3.1,0.5,3,2.8c-0.1,4.2,0,8.3,0,12.5c0,4.2-0.1,8.3,0,12.5
			c0.1,2.4-1.1,2.8-3.1,2.8c-1.9,0-2.9-0.5-2.9-2.7c0.1-8.3,0.1-16.6,0-25C314,442.9,314.8,442.1,317,442.1 M316.1,403.5
			c-0.1,11.4-0.1,22.8,0,34.1c0,1.5-0.2,2.6-2.1,2.7c-2.2,0.1-1.8,2-1.8,3.4c0,8.1,0,16.2-0.1,24.3c0,1.4,0.8,4.1-1,4.1
			c-2,0-1-2.6-1-3.9c-0.1-10.5-0.1-21-0.1-31.4h0c0-10.9,0-21.9,0-32.8c0-3.1,0.2-3.1,3.3-3.2C315.5,400.6,316.1,401.4,316.1,403.5
			 M309.5,352c3,0.2,3.2,0.2,3.2,3.3c0,13.4,0,26.8,0.1,40.3c0,1.9-0.3,3.4-2.7,3.2c-1.4-0.1-2,0.8-1.9,2.1c0,1,0,2,0,3
			c0,21.4,0,42.9,0,64.3c0,1.3,0.4,2.7-0.8,4.1c-0.9-1.4-0.6-2.5-0.6-3.6c0-37.7,0-75.3,0-113C306.7,353.8,306.5,351.9,309.5,352
			 M300.7,325.9c0.1-3.6,0.4-3.9,3.8-3.7c1.6,0.1,2.2,0.7,2.2,2.2c0,7.8,0,15.6,0,23.4c0,0.3,0.1,0.8-0.1,1
			c-3.1,3.2-1.7,7.2-1.7,10.9c-0.1,36.1-0.1,72.2-0.1,108.3c0,1,0,2-0.1,3c-0.1,1.1-0.8,1.5-1.8,1.5c-1,0-1.4-0.6-1.5-1.5
			c0-1-0.1-2-0.1-3c0-20.6,0-41.3,0-61.9c0-20.1,0.1-40.2-0.1-60.2C301.3,339.2,300.4,332.6,300.7,325.9 M293.5,380.8
			c-0.1-7.4,0-14.9,0-22.3c0-4.2,0-8.4,0-12.5c0-3.9,0.1-4.1,3.2-4c2.9,0,2.9,0.1,2.9,3.9c0,20.5,0,41.1,0,61.6
			c0,20.4,0,40.9,0,61.3c0,1.3,0.9,3.6-1.1,3.6c-2.1,0-1.2-2.3-1.2-3.6c-0.1-26.9,0-53.7,0-80.6c0-1.9,0.5-3.8-2.5-4.2
			C293,383.7,293.5,381.9,293.5,380.8 M292.4,386c2.4-0.1,2.9,1,2.9,3.1c0,13.4,0,26.8,0,40.3h0c0,12.9,0,25.7,0,38.6
			c0,0.7,0,1.4,0,2c-0.1,1.1,0.2,2.5-1.5,2.5c-1.9,0-1.6-1.5-1.6-2.7c0-12,0-23.9-0.1-35.9c0-2.2,1.1-5.1-2.4-6.1
			c-0.6-0.2-0.4-1.4-0.4-2.2c0-12.2,0-24.4,0-36.6C289.1,386.5,290.2,386.1,292.4,386 M287,430.2c2.2,0,3.2,0.7,3.2,3.1
			c-0.1,12.2-0.1,24.4,0,36.5c0,2.4-1,2.8-3,2.9c-2.2,0-3-0.7-2.9-3c0.1-6.1,0-12.2,0-18.3c0-6.1,0.1-12.2,0-18.3
			C284.2,431.1,284.7,430.1,287,430.2"/>
		<path class="st0" d="M392.9,472.6c1.2-4.8,2.1-9.5,1.6-14.5c-1.6,0.7-2.8,2.5-3.2,4.8c-1.5-1.4-1.1-3.4,1.2-6.2
			c-1.1-0.4-2.1-0.1-3,0.5c-0.8,0.6-1.6,1.3-2.4,2c-0.7-2.1,1.3-3.9,4.9-4.6c-0.8-0.9-1.8-1-4.3-0.5c0.8-2.1,3.6-2.2,6.8-0.2
			c0.4-1.6,1.2-2.7,2.9-2.9c1-0.1,1.8,0.3,2.3,1.2c-1.3,0.2-2.5,0.4-3.3,1.8c2.2-0.8,4.2-0.5,5.8,1c0.7,0.6,1.1,1.4,0.8,2.5
			c-1.6-0.9-3.1-2.1-5.3-1.7c0.4,0.3,0.6,0.5,0.9,0.6c1,0.7,1.8,1.4,2.3,2.5c0.4,0.8,0.5,1.7,0,2.7c-1.1-2.3-3.1-3.1-5.3-3.9
			c0.5,4.7,0.4,10.2-0.2,14.8"/>
		<path class="st0" d="M330.6,472.7c1.2-4.8,2.1-9.5,1.6-14.5c-1.6,0.7-2.8,2.5-3.2,4.8c-1.5-1.4-1.1-3.4,1.2-6.2
			c-1.1-0.4-2.1-0.1-3,0.5c-0.8,0.6-1.6,1.3-2.4,2c-0.7-2.1,1.3-3.9,4.9-4.6c-0.8-0.9-1.8-1-4.3-0.5c0.8-2.1,3.6-2.2,6.8-0.2
			c0.4-1.6,1.2-2.7,2.9-2.9c1-0.1,1.8,0.3,2.3,1.2c-1.3,0.2-2.5,0.4-3.3,1.8c2.2-0.8,4.2-0.5,5.8,1c0.7,0.6,1.1,1.4,0.8,2.5
			c-1.6-0.9-3.1-2.1-5.3-1.7c0.4,0.3,0.6,0.5,0.9,0.6c1,0.7,1.8,1.4,2.3,2.5c0.4,0.8,0.5,1.7,0,2.7c-1.1-2.3-3.1-3.1-5.3-3.9
			c0.5,4.7,0.4,10.2-0.2,14.8"/>
		<path class="st0" d="M317,472.6c0.8-0.4,0.7-1.1,0.7-1.7c-0.1-3.1-1.4-5.6-3.4-7.9c-0.2-0.3-0.7-0.4-1-0.5
			c-0.2,0.4-0.4,0.7-0.5,1.1c-0.1,1.1-0.2,2.2-0.3,3.3c-0.1,0.5-0.2,0.9-0.4,1.3c-0.9,1.4-1.8,2.8-2.8,4.1c-0.2,0.3-0.6,0.5-0.9,0.7
			c-0.1,0.1-0.4-0.1-0.6-0.2c0.1-0.2,0.1-0.4,0.2-0.5c0.7-1,1.5-2,2.3-3c0.9-1.2,1.1-2.5,1-3.9c-0.1-1.4-0.1-2.7-0.2-4.1
			c0-1-0.1-1.1-1.1-1c-0.9,0-1.8,0.2-2.7,0.3c-1.8,0.3-3.5,0.8-5.3,0.5c-1-0.2-1.9,1-1.9,2.3c0.1,1.7,0.2,3.4,0.2,5.1
			c0,1.1-0.1,2.2-0.2,3.4c0,0.4,0,0.9-0.6,0.7c-0.5-0.1-1.3,0.2-1.3-0.7c0-0.9-0.5-1.5-1-2.2c-0.6-0.7-1.1-1.4-1.6-2.1
			c-0.5-0.8-0.4-1.5,0.2-2.4c0.7-1,1.2-2.2,1.7-3.3c0.3-0.7,0.1-1.3-0.5-1.7c-0.2-0.1-0.3-0.3-0.4-0.4c-0.5-0.7-1.1-0.8-2-0.5
			c-1.7,0.7-3.4,0-4.5-1.7c-0.9-1.3-1.5-2.8-1.8-4.4c-0.1-0.6-0.3-1-0.9-1.2c-0.3-0.1-0.4-0.4-0.7-0.6c-0.3-0.3-0.7-0.5-1-0.7
			c-0.4-0.1-0.7-0.3-0.7-0.7c0-0.5,0.3-0.7,0.7-0.8c0.3-0.1,0.7-0.1,1-0.2c0.3-0.1,0.7,0,1-0.2c0.9-0.7,1.8-0.4,2.7-0.2
			c0.2,0.1,0.4,0.3,0.6,0.5c-0.2,0.1-0.4,0.2-0.5,0.4c-0.2,0.2-0.5,0.6-0.4,0.8c0.5,1.7,0.8,3.6,2.3,4.9c1,0.9,1.6,1,2.6,0.1
			c0.8-0.7,1.5-1.4,2.2-2.2c1-1,2.2-1.6,3.6-1.9c1.2-0.3,2.3-1,3.5-1.6c0.3-0.1,0.6-0.4,0.9-0.5c0.9-0.5,1.7-0.4,2.4,0.4
			c0.7,0.7,1.3,1.4,2,2.2c0.5,0.6,1.1,0.9,2,0.8c1.6-0.1,3.1,0.9,3.6,2.5c0.4,1.3,0.7,2.7,0.8,4.1c0.2,1.2,0.1,2.4,0.2,3.6
			c0.1,1.2,0.7,2.3,1.7,3c0.5,0.4,0.6,0.8,0.6,1.3c0,1.5,0,3.1,0,4.6C318.5,472.7,318.5,472.8,317,472.6 M299.3,471.3l0.2-0.1
			c0-0.3,0.1-0.6,0-0.9c-0.2-1.5-0.3-3.1-0.5-4.6c0-0.4-0.1-0.7-0.2-1.1c-0.1-0.4-0.3-0.6-0.8-0.4c-0.7,0.4-1.6,2.3-1.3,3.1
			C297.3,468.9,298.4,470.1,299.3,471.3"/>
		<path class="st2" d="M317,472.6c0.8-0.4,0.7-1.1,0.7-1.7c-0.1-3.1-1.4-5.6-3.4-7.9c-0.2-0.3-0.7-0.4-1-0.5
			c-0.2,0.4-0.4,0.7-0.5,1.1c-0.1,1.1-0.2,2.2-0.3,3.3c-0.1,0.5-0.2,0.9-0.4,1.3c-0.9,1.4-1.8,2.8-2.8,4.1c-0.2,0.3-0.6,0.5-0.9,0.7
			c-0.1,0.1-0.4-0.1-0.6-0.2c0.1-0.2,0.1-0.4,0.2-0.5c0.7-1,1.5-2,2.3-3c0.9-1.2,1.1-2.5,1-3.9c-0.1-1.4-0.1-2.7-0.2-4.1
			c0-1-0.1-1.1-1.1-1c-0.9,0-1.8,0.2-2.7,0.3c-1.8,0.3-3.5,0.8-5.3,0.5c-1-0.2-1.9,1-1.9,2.3c0.1,1.7,0.2,3.4,0.2,5.1
			c0,1.1-0.1,2.2-0.2,3.4c0,0.4,0,0.9-0.6,0.7c-0.5-0.1-1.3,0.2-1.3-0.7c0-0.9-0.5-1.5-1-2.2c-0.6-0.7-1.1-1.4-1.6-2.1
			c-0.5-0.8-0.4-1.5,0.2-2.4c0.7-1,1.2-2.2,1.7-3.3c0.3-0.7,0.1-1.3-0.5-1.7c-0.2-0.1-0.3-0.3-0.4-0.4c-0.5-0.7-1.1-0.8-2-0.5
			c-1.7,0.7-3.4,0-4.5-1.7c-0.9-1.3-1.5-2.8-1.8-4.4c-0.1-0.6-0.3-1-0.9-1.2c-0.3-0.1-0.4-0.4-0.7-0.6c-0.3-0.3-0.7-0.5-1-0.7
			c-0.4-0.1-0.7-0.3-0.7-0.7c0-0.5,0.3-0.7,0.7-0.8c0.3-0.1,0.7-0.1,1-0.2c0.3-0.1,0.7,0,1-0.2c0.9-0.7,1.8-0.4,2.7-0.2
			c0.2,0.1,0.4,0.3,0.6,0.5c-0.2,0.1-0.4,0.2-0.5,0.4c-0.2,0.2-0.5,0.6-0.4,0.8c0.5,1.7,0.8,3.6,2.3,4.9c1,0.9,1.6,1,2.6,0.1
			c0.8-0.7,1.5-1.4,2.2-2.2c1-1,2.2-1.6,3.6-1.9c1.2-0.3,2.3-1,3.5-1.6c0.3-0.1,0.6-0.4,0.9-0.5c0.9-0.5,1.7-0.4,2.4,0.4
			c0.7,0.7,1.3,1.4,2,2.2c0.5,0.6,1.1,0.9,2,0.8c1.6-0.1,3.1,0.9,3.6,2.5c0.4,1.3,0.7,2.7,0.8,4.1c0.2,1.2,0.1,2.4,0.2,3.6
			c0.1,1.2,0.7,2.3,1.7,3c0.5,0.4,0.6,0.8,0.6,1.3c0,1.5,0,3.1,0,4.6C318.5,472.7,318.5,472.8,317,472.6z M299.3,471.3l0.2-0.1
			c0-0.3,0.1-0.6,0-0.9c-0.2-1.5-0.3-3.1-0.5-4.6c0-0.4-0.1-0.7-0.2-1.1c-0.1-0.4-0.3-0.6-0.8-0.4c-0.7,0.4-1.6,2.3-1.3,3.1
			C297.3,468.9,298.4,470.1,299.3,471.3z"/>
		<path class="st0" d="M317,472.6c0.8-0.4,0.7-1.1,0.7-1.7c-0.1-3.1-1.4-5.6-3.4-7.9c-0.2-0.3-0.7-0.4-1-0.5
			c-0.2,0.4-0.4,0.7-0.5,1.1c-0.1,1.1-0.2,2.2-0.3,3.3c-0.1,0.5-0.2,0.9-0.4,1.3c-0.9,1.4-1.8,2.8-2.8,4.1c-0.2,0.3-0.6,0.5-0.9,0.7
			c-0.1,0.1-0.4-0.1-0.6-0.2c0.1-0.2,0.1-0.4,0.2-0.5c0.7-1,1.5-2,2.3-3c0.9-1.2,1.1-2.5,1-3.9c-0.1-1.4-0.1-2.7-0.2-4.1
			c0-1-0.1-1.1-1.1-1c-0.9,0-1.8,0.2-2.7,0.3c-1.8,0.3-3.5,0.8-5.3,0.5c-1-0.2-1.9,1-1.9,2.3c0.1,1.7,0.2,3.4,0.2,5.1
			c0,1.1-0.1,2.2-0.2,3.4c0,0.4,0,0.9-0.6,0.7c-0.5-0.1-1.3,0.2-1.3-0.7c0-0.9-0.5-1.5-1-2.2c-0.6-0.7-1.1-1.4-1.6-2.1
			c-0.5-0.8-0.4-1.5,0.2-2.4c0.7-1,1.2-2.2,1.7-3.3c0.3-0.7,0.1-1.3-0.5-1.7c-0.2-0.1-0.3-0.3-0.4-0.4c-0.5-0.7-1.1-0.8-2-0.5
			c-1.7,0.7-3.4,0-4.5-1.7c-0.9-1.3-1.5-2.8-1.8-4.4c-0.1-0.6-0.3-1-0.9-1.2c-0.3-0.1-0.4-0.4-0.7-0.6c-0.3-0.3-0.7-0.5-1-0.7
			c-0.4-0.1-0.7-0.3-0.7-0.7c0-0.5,0.3-0.7,0.7-0.8c0.3-0.1,0.7-0.1,1-0.2c0.3-0.1,0.7,0,1-0.2c0.9-0.7,1.8-0.4,2.7-0.2
			c0.2,0.1,0.4,0.3,0.6,0.5c-0.2,0.1-0.4,0.2-0.5,0.4c-0.2,0.2-0.5,0.6-0.4,0.8c0.5,1.7,0.8,3.6,2.3,4.9c1,0.9,1.6,1,2.6,0.1
			c0.8-0.7,1.5-1.4,2.2-2.2c1-1,2.2-1.6,3.6-1.9c1.2-0.3,2.3-1,3.5-1.6c0.3-0.1,0.6-0.4,0.9-0.5c0.9-0.5,1.7-0.4,2.4,0.4
			c0.7,0.7,1.3,1.4,2,2.2c0.5,0.6,1.1,0.9,2,0.8c1.6-0.1,3.1,0.9,3.6,2.5c0.4,1.3,0.7,2.7,0.8,4.1c0.2,1.2,0.1,2.4,0.2,3.6
			c0.1,1.2,0.7,2.3,1.7,3c0.5,0.4,0.6,0.8,0.6,1.3c0,1.5,0,3.1,0,4.6C318.5,472.7,318.5,472.8,317,472.6 M299.3,471.3l0.2-0.1
			c0-0.3,0.1-0.6,0-0.9c-0.2-1.5-0.3-3.1-0.5-4.6c0-0.4-0.1-0.7-0.2-1.1c-0.1-0.4-0.3-0.6-0.8-0.4c-0.7,0.4-1.6,2.3-1.3,3.1
			C297.3,468.9,298.4,470.1,299.3,471.3"/>
		<path class="st0" d="M327,472.6c-0.1,0-0.3,0-0.4,0c-3.1,0-4.1,0-4.5-1.3h-2.2c-0.4,1.1-1.4,1.3-2.9,1.3c-1.4,0-2.3-0.3-2.7-1.3
			h-2.1c-0.1,0.4-0.4,0.7-1,0.7c-0.7,0-1-0.3-1.1-0.7H308c-0.1,0.3-0.3,0.7-0.6,1c-0.2-0.4-0.4-0.7-0.5-1h-2.2
			c-0.2,0.9-0.9,1.2-1.8,1.2c-0.8,0-1.3-0.5-1.4-1.2h-1.9c-0.1,0.5-0.5,0.9-1.3,0.9c-0.9,0-1.2-0.4-1.3-0.9h-1.9
			c-0.1,0.6-0.4,1.1-1.4,1.1c-1.1,0-1.5-0.5-1.6-1.1h-2.2c-0.4,1-1.3,1.3-2.8,1.3c-1.5,0-2.3-0.3-2.7-1.3H282
			c-0.2,1.2-0.9,1.3-3.2,1.3v3.8H327V472.6z"/>
		<g>
			<g>
				<path class="st0" d="M232.4,444.1c0.3,0.9,0.9,1,1.6,1c4.7,0,9.4,0,14.2,0c0.7,0,1.4,0.1,1.6-0.8c0.2-0.8-0.4-1-1-1
					c-5.3-0.1-10.6-0.3-15.8,0.2C232.8,443.5,232.6,443.9,232.4,444.1"/>
				<path class="st0" d="M241,448c-2.2,0-4.5,0-6.7,0c-0.7,0-1.8-0.2-1.7,1c0.1,0.8,0.9,0.8,1.6,0.8c3.4,0,6.7,0,10.1,0
					c1.3,0,2.7,0,4,0c0.7,0,1.5-0.1,1.6-0.9c0-0.9-0.8-0.9-1.5-0.9C245.9,448,243.4,448,241,448"/>
				<path class="st0" d="M241.2,440.4c2.2,0,4.5,0,6.7,0c0.8,0,1.8,0.1,1.9-0.9c0.1-1.2-1-1-1.7-1c-4.5,0-9,0-13.5,0
					c-0.8,0-2.2-0.2-2.1,1c0.1,1.1,1.4,0.9,2.3,0.9C237,440.4,239.1,440.4,241.2,440.4"/>
				<path class="st0" d="M239.1,465.6c2.9,0,5.9,0,8.8,0c0.7,0,1.8,0.2,2-0.8c0.1-1.2-1-1-1.7-1c-6.2,0-12.4,0-18.6,0
					c-0.7,0-1.6,0-1.6,0.8c-0.1,1.2,1,1,1.7,1C232.8,465.6,235.9,465.6,239.1,465.6"/>
				<path class="st0" d="M238.7,468.5c-3.2,0-6.3,0-9.5,0c-0.6,0-1.5,0-1.4,1c0.1,0.7,0.8,0.7,1.4,0.7c6.4,0,12.9,0,19.3,0
					c0.7,0,1.5-0.1,1.4-1c-0.1-0.7-0.8-0.7-1.3-0.7C245.3,468.5,242,468.5,238.7,468.5"/>
				<path class="st0" d="M238.7,459c-3.2,0-6.3,0-9.5,0c-0.6,0-1.5,0-1.4,1c0.1,0.7,0.8,0.8,1.3,0.8c6.4,0,12.8,0,19.2,0
					c0.7,0,1.5,0,1.4-1c-0.1-0.7-0.8-0.8-1.3-0.8C245.3,459,242,459,238.7,459"/>
				<path class="st0" d="M243.5,419.3c1.8,0,3.6,0,5.4,0c0.5,0,0.9-0.3,1-0.7c0.1-0.7-0.5-1-1-1c-3.6,0-7.2,0-10.8,0
					c-0.6,0-1.2,0.2-1.2,0.9c0,0.6,0.6,0.9,1.2,0.9C239.9,419.3,241.7,419.3,243.5,419.3C243.5,419.3,243.5,419.3,243.5,419.3"/>
				<path class="st0" d="M243.5,428.8c1.8,0,3.6,0,5.4,0c0.5,0,0.9-0.3,1-0.8c0.1-0.7-0.5-1-1-1c-3.6,0-7.2,0-10.8,0
					c-0.6,0-1.2,0.2-1.2,0.9c0,0.6,0.6,0.9,1.2,0.9C239.9,428.8,241.7,428.8,243.5,428.8C243.5,428.8,243.5,428.8,243.5,428.8"/>
				<path class="st0" d="M243.5,424c1.8,0,3.6,0,5.4,0c0.6,0,1.1-0.4,1-1.1c-0.1-0.6-0.6-0.7-1-0.7c-3.6,0-7.2,0-10.8,0
					c-0.6,0-1.2,0.2-1.2,0.9c0,0.6,0.6,0.9,1.2,0.9C239.9,424.1,241.7,424.1,243.5,424C243.5,424,243.5,424,243.5,424"/>
				<path class="st0" d="M247,395.8c-0.4,0-0.6,0-0.8,0c-0.7,0.1-1.8-0.2-1.9,0.9c-0.1,1,1,1,1.7,1.1c0.2,0,0.5,0,0.7,0
					c1.1-0.3,3.1,0.7,3.1-0.9C249.9,395.1,247.8,396.2,247,395.8"/>
				<path class="st0" d="M247.3,405.3c-0.8,0-1.3,0-1.9,0c-0.6,0-1.2,0.2-1.2,0.9c0,0.6,0.6,0.9,1.2,0.9c0.6,0,1.1,0.1,1.7,0
					c1-0.1,2.7,0.5,2.7-1C249.8,404.7,248,405.6,247.3,405.3"/>
				<path class="st0" d="M247.1,402.5c0.7,0,1.3,0,1.8-0.1c0.6-0.1,1-0.4,1-1.1c0-0.6-0.5-0.7-1-0.7c-0.6-0.1-1.1-0.1-1.7-0.1
					c-1,0.1-2.8-0.5-2.9,0.8C244.3,403.2,246.3,402.1,247.1,402.5"/>
			</g>
			<path class="st0" d="M214.7,473h43.8c-1.7-0.5-1.5-1.9-1.5-5.7c0-25.5,0-51,0-76.5c0-2.1,0.9-4.6-2.2-5.7
				c-0.9-0.3-0.5-1.6-0.5-2.5c0-3.8,0-7.7,0-11.5c0-0.9,0.5-2.6-0.8-2.6c-1.6,0-1,1.7-1,2.7c-0.1,3.7-0.1,7.4,0,11.2
				c0,1.9-0.3,3.1-2.6,3.5c-3.6,0.6-6.1,3.2-8.6,5.7c-8.3,8.5-13.4,18.9-17.3,29.9c-5.1,14.6-7.4,29.7-8.1,45.1
				c-0.1,1.5-0.1,2.9-0.2,4.4c0,0.7-0.1,1.5-0.9,1.6c0,0-0.1,0-0.1,0V473z M255,408.7c0,2.3-1,2.9-3.1,2.8c-3.2-0.1-6.3,0-9.5,0
				c-3.3,0-6.5,0-9.8,0c-1.6,0-2.3-0.5-1.5-2.2c3.7-7.2,7.9-13.9,14.1-19.2c2-1.7,4.3-2.8,7.1-2.6c1.9,0.1,2.6,0.7,2.6,2.6
				C255,396.3,254.9,402.5,255,408.7z M255,429.7c0,2.1-0.7,3-3,2.9c-4.4-0.1-8.8,0-13.2,0v0c-4.6,0-9.2-0.1-13.8,0
				c-2,0-2.4-0.7-1.9-2.4c1.4-5,3.1-9.9,5.1-14.7c0.6-1.4,1.4-2.1,3-2.1c7,0,14,0.1,20.9,0c2.1,0,2.8,0.8,2.8,2.8
				C254.9,420.7,254.9,425.2,255,429.7z M255,437.2c-0.1,4.5-0.1,9,0,13.5c0,2.2-0.7,3-2.9,3c-5.1-0.1-10.1,0-15.2,0
				c-5.1,0-10.2-0.1-15.2,0c-2.1,0-2.9-0.7-2.6-2.8c0.8-4.8,1.5-9.6,2.6-14.3c0.4-1.7,1.3-2.1,2.8-2.1c9.2,0,18.5,0,27.7,0
				C254.2,434.5,255.1,435.1,255,437.2z M217.6,469.4c0.3-3.8,0.5-7.6,0.7-11.4c0.1-1.7,0.9-2.3,2.6-2.3c10.5,0,21,0,31.5,0
				c2.1,0,2.7,1,2.7,2.8c-0.1,3.6-0.1,7.2,0,10.8c0.1,2.2-0.8,3.1-3.1,3.1c-5.2-0.1-10.4,0-15.6,0v0c-5.2,0-10.4-0.1-15.6,0
				C218.5,472.4,217.4,471.7,217.6,469.4z"/>
		</g>
		<g>
			<g>
				<path class="st0" d="M374.7,466.9c0.8-0.3,2.8,0.6,2.7-0.8c-0.1-1.8-2-0.7-3.1-0.9c-0.8-0.2-1.6,0-2.3,0c-0.5,0-1.2,0-1.2,0.8
					c0,1,0.8,0.9,1.4,1C372.9,467,373.7,466.9,374.7,466.9"/>
				<path class="st0" d="M374.3,462.7c1.1-0.8,3,0.8,3.1-1.2c0-1.4-1.9-0.8-2.9-0.7c-1.2,0.1-3.4-1-3.5,0.9
					C370.9,463.3,373.2,462,374.3,462.7"/>
				<path class="st0" d="M373.9,436.3c-1,0.6-2.9-0.8-2.9,1.1c0,1.2,1.9,0.8,3,0.7c1.2-0.1,3.4,1,3.5-0.9
					C377.4,435.7,375.1,436.7,373.9,436.3"/>
				<path class="st0" d="M374.5,442.6c1-0.7,2.9,0.9,2.9-1.1c0-1.4-1.9-0.8-2.9-0.7c-1.2,0.1-3.4-1.1-3.5,1
					C370.9,443.2,373.2,442.2,374.5,442.6"/>
				<path class="st0" d="M374.1,458.1c0.9,0,1.9,0,2.8,0c0.4,0,0.7-0.3,0.7-0.8c0-0.4-0.3-0.7-0.7-0.8c-1.9-0.2-3.8-0.2-5.6,0
					c-0.3,0-0.6,0.4-0.5,0.9c0.1,0.2,0.3,0.6,0.5,0.6c0.9,0.1,1.9,0.1,2.8,0.2C374.1,458.1,374.1,458.1,374.1,458.1"/>
				<path class="st0" d="M374.2,447c1.1-0.5,3.3,0.6,3.2-0.8c-0.1-1.9-2.1-0.9-3.2-1c-1.1,0-3.2-0.7-3.2,0.7
					C371,447.8,373.1,446.5,374.2,447"/>
				<path class="st0" d="M374,427.1c1.3-0.4,3.4,0.5,3.3-0.9c-0.1-1.8-2.1-0.9-3.3-1c-1.1,0-3.2-0.7-3.2,0.8
					C371,428,373.1,426.3,374,427.1"/>
				<path class="st0" d="M377.6,417.4c-2-1.5-4.2-1-6.3-0.8c-0.2,0-0.5,0.4-0.5,0.7c0,0.7,0.5,0.8,0.9,0.8
					C373.6,418.2,375.6,418.3,377.6,417.4"/>
				<path class="st0" d="M370.7,421.7c2,1.3,4.1,0.8,6.1,0.8c0.3,0,0.7-0.2,0.7-0.7c0-0.5-0.3-0.8-0.6-0.9
					C374.8,420.8,372.7,420.3,370.7,421.7"/>
				<path class="st0" d="M352,418.2c1-0.5,3.1,0.9,3.1-1.1c0-1.5-2-0.6-3.2-0.8c-0.9-0.1-1.9,0-2.8,0.1c-0.4,0-0.7,0.4-0.7,0.8
					c0,0.5,0.3,0.7,0.7,0.8C350,418.1,351,418.1,352,418.2"/>
				<path class="st0" d="M352,422.6c1-0.4,3.1,0.6,3.1-0.8c0-2.1-2-0.8-3.2-1.1c-0.9-0.2-1.9,0-2.8,0.1c-0.4,0-0.7,0.4-0.7,0.8
					c0,0.5,0.3,0.7,0.7,0.8C350,422.5,351,422.6,352,422.6"/>
				<path class="st0" d="M352.3,458.1c0.8-0.4,2.8,1.1,2.9-0.9c0-1.5-2-0.6-3.2-0.8c-0.9-0.1-1.9,0-2.9,0.1c-0.4,0-0.7,0.4-0.7,0.8
					c0,0.4,0.3,0.8,0.7,0.8C350,458.1,351,458.1,352.3,458.1"/>
				<path class="st0" d="M352,427.1c1-0.5,3.1,0.7,3.1-0.9c0-1.8-2-0.9-3-0.9c-1.2,0-3.4-1-3.5,0.9
					C348.6,427.7,350.8,426.6,352,427.1"/>
				<path class="st0" d="M351.5,436.4c-0.8,0.3-2.9-0.7-2.9,0.7c0,1.9,2.1,0.7,3.2,1c0.8,0.2,1.7,0,2.6,0c0.5,0,0.9-0.2,0.9-0.8
					c0-0.6-0.5-0.8-0.9-0.8C353.5,436.4,352.6,436.4,351.5,436.4"/>
				<path class="st0" d="M352.3,442.5c0.7-0.3,2.8,0.8,2.8-0.7c0-2-2.1-0.7-3.2-1c-0.9-0.2-1.9,0-2.9,0.1c-0.4,0-0.7,0.4-0.7,0.8
					c0,0.4,0.3,0.8,0.7,0.8C350,442.5,351,442.5,352.3,442.5"/>
				<path class="st0" d="M352.4,446.8c0.7-0.3,2.8,0.8,2.8-0.7c0-2-2.1-0.8-3.2-1c-0.9-0.2-1.9,0-2.8,0.1c-0.4,0-0.7,0.4-0.7,0.8
					c0,0.4,0.3,0.8,0.7,0.8C350.1,446.9,351,446.8,352.4,446.8"/>
				<path class="st0" d="M351.9,460.7c-0.9,0.1-1.9,0.1-2.8,0.2c-0.4,0-0.7,0.4-0.7,0.8c0,0.4,0.3,0.8,0.7,0.8c1.8,0,3.6,0.1,5.4,0
					c0.4,0,0.9-0.3,0.8-1c-0.1-0.5-0.4-0.7-0.8-0.7C353.7,460.8,352.8,460.8,351.9,460.7C351.9,460.8,351.9,460.8,351.9,460.7"/>
				<path class="st0" d="M351.9,466.9c0.9,0,1.7,0,2.6,0c0.5,0,0.9-0.3,0.9-0.9c0-0.6-0.5-0.8-0.9-0.8c-1.7,0-3.5,0-5.2,0
					c-0.4,0-0.7,0.2-0.8,0.7c-0.1,0.7,0.4,0.9,0.8,0.9C350.1,466.9,351,466.9,351.9,466.9C351.9,466.9,351.9,466.9,351.9,466.9"/>
			</g>
			<g>
				<path class="st0" d="M365.1,471.7c0,0.7-0.1,1.2-0.4,1.6h19.7c-0.4-0.5-0.6-1.3-0.6-2.4c0.1-9.4,0-18.8,0-28.3
					c0-19.4,0-38.7,0-58.1c0-2.2-0.5-3.7-1.9-5.1c-4.7-5-9.2-10.2-13.9-15.3c-0.7-0.8-1.4-2.4-2.5-1.9c-1.2,0.5-0.6,2.2-0.6,3.4
					c0,34.3,0,68.7,0,103C365.2,469.6,365.1,470.7,365.1,471.7z M366.6,469.9c0-0.6,0-1.2,0-1.9c0-32.6,0-65.2,0-97.8v-4.4
					c1.2-0.1,1.6,0.7,2.1,1.2c4,4.4,8,8.9,12.1,13.2c1.3,1.4,1.7,2.8,1.7,4.8c-0.1,12.4,0,24.8,0,37.1c0,15.7,0,31.4,0,47
					c0,1.6,0.1,3.1-1.9,3.1c-4-0.1-8-0.1-12,0C367.1,472.3,366.5,471.6,366.6,469.9z"/>
				<path class="st0" d="M342.4,473.3H362c-0.2-0.3-0.4-0.8-0.3-1.5c0-1.5,0-2.9,0-4.4c0-26.4,0-52.8,0-79.2c0-0.6,0-1.3,0-1.9
					c-0.1-1.1,0.5-2.6-0.6-3.1c-1.1-0.6-1.6,0.9-2.3,1.6c-4.6,5.1-9.2,10.3-13.9,15.3c-1.6,1.7-2.1,3.5-2.1,6
					c0.1,21.4,0.1,42.7,0,64.1C342.8,471.2,343.2,472.7,342.4,473.3z M344.3,469.5c0-21.6,0-43.2,0-64.7c0-1.1,0.1-2.1,0.8-2.8
					c4.8-5.3,9.7-10.6,14.6-16c0.6,1,0.5,1.6,0.5,2.3c0,15.8,0.1,31.6,0.1,47.4c0,11.3,0,22.5,0,33.8c0,2.3-0.6,3.1-2.6,3
					c-3.7-0.1-7.3-0.1-11,0C345,472.4,344.3,471.7,344.3,469.5z"/>
			</g>
		</g>
	</g>
</g>
</svg>
